<svg xmlns="http://www.w3.org/2000/svg" xmlns:xlink="http://www.w3.org/1999/xlink" version="1.1" id="Layer_1" x="0px" y="0px" viewBox="0 0 1050 609" style="enable-background:new 0 0 1050 609;" xml:space="preserve" width="1052"  height="610" >
<style type="text/css">
	.st0{opacity:0.5;fill:#302C3F;enable-background:new    ;}
	.st1{opacity:0.4;fill:#302C3F;enable-background:new    ;}
	.st2{opacity:0.5;}
	.st3{fill:#1D1A27;}
	.st4{fill:none;stroke:#FFFFFF;stroke-opacity:0.16;}
	.st5{fill:#FF5F56;}
	.st6{fill:#F8D345;}
	.st7{fill:#89D85D;}
	.st8{fill:#736D87;}
	.st9{fill:#88849C;}
	.st10{fill:#302C3F;}
	.st11{fill:#373345;}
	.st12{fill:#433D55;}
	.st13{fill:#57516E;}
	.st14{fill:#726990;}
	.st15{fill:url(#SVGID_1_);}
	.st16{fill:none;stroke:#413B53;}
	.st17{fill:#5F5977;}
	.st18{fill:#3F3950;}
	.st19{fill:url(#SVGID_00000170254334086536153420000002184463343218025858_);}
	
		.st20{fill:none;stroke:url(#SVGID_00000057126509496233346690000013463649333793100975_);stroke-width:2.5;stroke-linecap:round;stroke-linejoin:round;}
	.st21{fill:url(#SVGID_00000155833224684787790960000009636640128232755602_);}
	.st22{fill-rule:evenodd;clip-rule:evenodd;fill:url(#SVGID_00000072975876085435447700000015177484770090861457_);}
	.st23{fill-rule:evenodd;clip-rule:evenodd;fill:url(#SVGID_00000002356835189240183250000015748250740073015976_);}
	.st24{fill-rule:evenodd;clip-rule:evenodd;fill:url(#SVGID_00000077305341566164143190000014199716006269811350_);}
	.st25{fill-rule:evenodd;clip-rule:evenodd;fill:url(#SVGID_00000079488382996671382240000008651671425127012011_);}
	.st26{fill-rule:evenodd;clip-rule:evenodd;fill:url(#SVGID_00000049220212538513375850000007681420606455278006_);}
	.st27{fill-rule:evenodd;clip-rule:evenodd;fill:url(#SVGID_00000007407275755492088520000015033206581956822697_);}
	.st28{fill-rule:evenodd;clip-rule:evenodd;fill:url(#SVGID_00000079457335722496195810000008485944664917891466_);}
	.st29{fill-rule:evenodd;clip-rule:evenodd;fill:url(#SVGID_00000075156679602264854290000005637302014859280030_);}
	.st30{fill-rule:evenodd;clip-rule:evenodd;fill:url(#SVGID_00000129896378728556058810000010821024027606110363_);}
	.st31{fill-rule:evenodd;clip-rule:evenodd;fill:url(#SVGID_00000173853212283755287810000004036404614500792717_);}
	.st32{fill-rule:evenodd;clip-rule:evenodd;fill:url(#SVGID_00000143610463174598485910000003596237768672489389_);}
	.st33{fill-rule:evenodd;clip-rule:evenodd;fill:url(#SVGID_00000159444603735779054420000008002816314149253301_);}
	.st34{fill-rule:evenodd;clip-rule:evenodd;fill:url(#SVGID_00000096756062984989555410000011912680087371175604_);}
	.st35{fill-rule:evenodd;clip-rule:evenodd;fill:url(#SVGID_00000031894943337904759210000014886445414535019952_);}
	.st36{fill-rule:evenodd;clip-rule:evenodd;fill:url(#SVGID_00000143576934812244628520000017529791173191120029_);}
	.st37{fill-rule:evenodd;clip-rule:evenodd;fill:url(#SVGID_00000148628676961828234510000003775401023773216927_);}
	.st38{fill-rule:evenodd;clip-rule:evenodd;fill:url(#SVGID_00000070827832181253893460000013108191951467249841_);}
	.st39{fill-rule:evenodd;clip-rule:evenodd;fill:url(#SVGID_00000008115955280133119130000015247576540698280082_);}
	.st40{fill-rule:evenodd;clip-rule:evenodd;fill:url(#SVGID_00000160899319318623969050000010740998148382481328_);}
	.st41{fill-rule:evenodd;clip-rule:evenodd;fill:url(#SVGID_00000142880484661547900500000001854896976467624068_);}
	.st42{fill:url(#SVGID_00000022533153140005222410000008686815488560145570_);}
	.st43{fill:#5E5B71;}
	.st44{fill:none;stroke:#302C3F;}
	.st45{fill:url(#SVGID_00000150794496929582694650000012705210859388027551_);}
	
		.st46{fill:none;stroke:url(#SVGID_00000086662065715020826890000007507190586085444499_);stroke-width:2.5;stroke-linecap:round;stroke-linejoin:round;}
</style>
<path class="st0" d="M236.6,72.1h282c3.5,0,6.4,4.8,6.4,10.7v286.1c0,5.9-2.9,10.7-6.4,10.7h-282c-3.5,0-6.4-4.8-6.4-10.7V82.8  C230.2,76.9,233.1,72.1,236.6,72.1z"/>
<path class="st0" d="M550.6,72.1h292.1c3.6,0,6.6,2.9,6.6,6.4v171.2c0,3.5-3,6.4-6.6,6.4H550.6c-3.6,0-6.6-2.9-6.6-6.4V78.5  C544,75,546.9,72.1,550.6,72.1z"/>
<path class="st1" d="M871.8,72.1h141.7c1.8,0,3.2,4.8,3.2,10.7v286.1c0,5.9-1.4,10.7-3.2,10.7H871.8c-1.8,0-3.2-4.8-3.2-10.7V82.8  C868.6,76.9,870,72.1,871.8,72.1z"/>
<path class="st0" d="M547.1,272.8H685c1.7,0,3.1,1.7,3.1,3.7v100c0,2.1-1.4,3.7-3.1,3.7H547.1c-1.7,0-3.1-1.7-3.1-3.7v-100  C544,274.5,545.4,272.8,547.1,272.8z"/>
<g class="st2">
	<rect class="st3" width="1049.5" height="606.8"/>
	<rect x="0.5" y="0.5" class="st4" width="1048.5" height="605.8"/>
</g>
<circle class="st5" cx="36.2" cy="28.6" r="6.5"/>
<circle class="st6" cx="59.2" cy="28.6" r="6.5"/>
<circle class="st7" cx="82.2" cy="28.6" r="6.5"/>
<path class="st8" d="M35.7,218.8h127c3.3,0,6,2.7,6,6l0,0c0,3.3-2.7,6-6,6h-127c-3.3,0-6-2.7-6-6l0,0  C29.7,221.5,32.4,218.8,35.7,218.8z"/>
<path class="st9" d="M579.7,213.9h127c3.3,0,6,2.7,6,6l0,0c0,3.3-2.7,6-6,6h-127c-3.3,0-6-2.7-6-6l0,0  C573.7,216.6,576.4,213.9,579.7,213.9z"/>
<path class="st10" d="M266.9,117.1h114c2.8,0,5,2.2,5,5l0,0c0,2.8-2.2,5-5,5h-114c-2.8,0-5-2.2-5-5l0,0  C261.9,119.4,264.2,117.1,266.9,117.1z"/>
<path class="st11" d="M35.7,68.8h81c3.3,0,6,2.7,6,6l0,0c0,3.3-2.7,6-6,6h-81c-3.3,0-6-2.7-6-6l0,0C29.7,71.5,32.4,68.8,35.7,68.8z"/>
<path class="st11" d="M35.7,98.8h133c3.3,0,6,2.7,6,6l0,0c0,3.3-2.7,6-6,6h-133c-3.3,0-6-2.7-6-6l0,0  C29.7,101.5,32.4,98.8,35.7,98.8z"/>
<path class="st11" d="M35.7,128.8h96c3.3,0,6,2.7,6,6l0,0c0,3.3-2.7,6-6,6h-96c-3.3,0-6-2.7-6-6l0,0  C29.7,131.5,32.4,128.8,35.7,128.8z"/>
<path class="st11" d="M35.7,158.8h118c3.3,0,6,2.7,6,6l0,0c0,3.3-2.7,6-6,6h-118c-3.3,0-6-2.7-6-6l0,0  C29.7,161.5,32.4,158.8,35.7,158.8z"/>
<path class="st11" d="M35.7,188.8h62c3.3,0,6,2.7,6,6l0,0c0,3.3-2.7,6-6,6h-62c-3.3,0-6-2.7-6-6l0,0  C29.7,191.5,32.4,188.8,35.7,188.8z"/>
<path class="st12" d="M579,194.2h62c3.3,0,6,2.7,6,6l0,0c0,3.3-2.7,6-6,6h-62c-3.3,0-6-2.7-6-6l0,0C573,196.9,575.7,194.2,579,194.2  z"/>
<path class="st11" d="M35.7,248.8h96c3.3,0,6,2.7,6,6l0,0c0,3.3-2.7,6-6,6h-96c-3.3,0-6-2.7-6-6l0,0  C29.7,251.5,32.4,248.8,35.7,248.8z"/>
<path class="st12" d="M662.2,194.2h96c3.3,0,6,2.7,6,6l0,0c0,3.3-2.7,6-6,6h-96c-3.3,0-6-2.7-6-6l0,0  C656.2,196.9,658.9,194.2,662.2,194.2z"/>
<path class="st11" d="M35.7,278.8h118c3.3,0,6,2.7,6,6l0,0c0,3.3-2.7,6-6,6h-118c-3.3,0-6-2.7-6-6l0,0  C29.7,281.5,32.4,278.8,35.7,278.8z"/>
<path class="st11" d="M35.7,308.8h62c3.3,0,6,2.7,6,6l0,0c0,3.3-2.7,6-6,6h-62c-3.3,0-6-2.7-6-6l0,0  C29.7,311.5,32.4,308.8,35.7,308.8z"/>
<path class="st13" d="M389.8,15.6h270.5c9.5,0,17.2,5.8,17.2,13l0,0c0,7.2-7.7,13-17.2,13H389.8c-9.5,0-17.2-5.8-17.2-13l0,0  C372.6,21.4,380.3,15.6,389.8,15.6z"/>
<circle class="st14" cx="1002.7" cy="28.6" r="18.5"/>
<g>
	
		<linearGradient id="SVGID_1_" gradientUnits="userSpaceOnUse" x1="30.1127" y1="544.277" x2="203.1947" y2="557.139" gradientTransform="matrix(1 0 0 1 0 -2)">
		<stop offset="0" style="stop-color:#FC7318"/>
		<stop offset="1" style="stop-color:#FEB423"/>
	</linearGradient>
	<path class="st15" d="M50.2,528.1h130c11.3,0,20.5,9.2,20.5,20.5l0,0c0,11.3-9.2,20.5-20.5,20.5h-130c-11.3,0-20.5-9.2-20.5-20.5   l0,0C29.7,537.3,38.9,528.1,50.2,528.1z"/>
</g>
<path class="st12" d="M269.6,211.1h34.7c2.2,0,4.1,1.8,4.1,4.1l0,0c0,2.2-1.8,4.1-4.1,4.1h-34.7c-2.2,0-4.1-1.8-4.1-4.1l0,0  C265.6,212.9,267.4,211.1,269.6,211.1z"/>
<path class="st12" d="M266,98.1h34.7c2.2,0,4.1,1.8,4.1,4.1l0,0c0,2.2-1.8,4.1-4.1,4.1H266c-2.2,0-4.1-1.8-4.1-4.1l0,0  C261.9,99.9,263.8,98.1,266,98.1z"/>
<path class="st12" d="M269.6,196H287c2.2,0,4.1,1.8,4.1,4.1l0,0c0,2.2-1.8,4.1-4.1,4.1h-17.4c-2.2,0-4.1-1.8-4.1-4.1l0,0  C265.6,197.8,267.4,196,269.6,196z"/>
<line class="st16" x1="266.4" y1="239.5" x2="266.4" y2="339.7"/>
<line class="st16" x1="311.6" y1="239.5" x2="311.6" y2="339.7"/>
<line class="st16" x1="356.8" y1="239.5" x2="356.8" y2="339.7"/>
<line class="st16" x1="401.9" y1="239.5" x2="401.9" y2="339.7"/>
<line class="st16" x1="892.7" y1="298.6" x2="892.7" y2="357.1"/>
<line class="st16" x1="926" y1="298.6" x2="926" y2="357.1"/>
<line class="st16" x1="959.4" y1="298.6" x2="959.4" y2="357.1"/>
<line class="st16" x1="992.6" y1="298.6" x2="992.6" y2="357.1"/>
<line class="st16" x1="447.1" y1="239.5" x2="447.1" y2="339.7"/>
<line class="st16" x1="492.3" y1="239.5" x2="492.3" y2="339.7"/>
<path class="st17" d="M463,351.8h11.6c1.6,0,2.9,1.3,2.9,2.9v3.5c0,1.6-1.3,2.9-2.9,2.9H463c-1.6,0-2.9-1.3-2.9-2.9v-3.5  C460.1,353.1,461.4,351.8,463,351.8z"/>
<path class="st18" d="M486.8,351.8h11.6c1.6,0,2.9,1.3,2.9,2.9v3.5c0,1.6-1.3,2.9-2.9,2.9h-11.6c-1.6,0-2.9-1.3-2.9-2.9v-3.5  C483.9,353.1,485.2,351.8,486.8,351.8z"/>
<linearGradient id="SVGID_00000149341550377824724930000006042853918414278790_" gradientUnits="userSpaceOnUse" x1="379.2631" y1="254.2942" x2="378.8467" y2="328.2824" gradientTransform="matrix(1 0 0 1 0 -2)">
	<stop offset="0" style="stop-color:#83DB73;stop-opacity:0.21"/>
	<stop offset="1" style="stop-color:#83DB73;stop-opacity:0"/>
</linearGradient>
<path style="fill:url(#SVGID_00000149341550377824724930000006042853918414278790_);" d="M272.1,316.4h-0.2c-3.5,0-6.3,2.8-6.3,6.3  v5.4c0,0.3,0.3,0.6,0.6,0.6l225.3,0.6c0.3,0,0.6-0.3,0.6-0.6v-77.9l-2.6,3c-3.1,3.5-8.8,2.4-10.3-2c-0.9-2.5-3.2-4.1-5.8-4.1h-4.7  c-2.7,0-5.3,0.9-7.3,2.6l-2.5,2c-2.1,1.7-4.9,2.2-7.4,1.2c-3.9-1.4-8.2,0.5-9.7,4.4l-3,7.9c-1.3,3.3-5.6,4.3-8.1,1.7l-2.8-2.8  c-0.8-0.8-2.1-0.7-2.7,0.3c-0.5,0.8-1.5,1-2.4,0.6l-1.4-0.8c-1.5-0.9-3.5-0.5-4.5,1l-3,4.3c-1.3,1.8-3.5,2.7-5.7,2.3  c-2.7-0.5-5.4,1-6.4,3.6l-4.9,13.5c-1.1,3.1-3.6,5.5-6.7,6.5l-2.6,0.8c-3,1-6.2-0.1-8-2.7l-2.5-3.6c-1.7-2.4-5.3-2.4-6.9,0.1  c-0.5,0.8-1.4,1.5-2.3,1.7l-2.2,0.7c-2.9,0.9-5.3,3-6.5,5.8l-0.6,1.5c-1.5,3.5-4.5,6-8.2,6.8l-2.7,0.6c-1.7,0.4-3.2,1.3-4.4,2.5  l-2.4,2.6c-1.9,2-5,2.1-7,0.3c-1.6-1.4-3.8-1.7-5.7-0.7l-11.1,6c-1.9,1-4.2,1-6.1-0.1c-2-1.1-4.4-1.1-6.4,0.1l-0.6,0.4  c-1.2,0.7-2.5,1-3.8,1h-5c-2.6,0-5.1-0.9-7.1-2.5l-3.8-3.1c-2.4-1.9-5.9-1.7-8,0.5C275.2,315.7,273.7,316.4,272.1,316.4z"/>
<linearGradient id="SVGID_00000130643102654575798570000009193449885903149481_" gradientUnits="userSpaceOnUse" x1="464.6716" y1="215.1824" x2="292.9252" y2="357.4337" gradientTransform="matrix(1 0 0 1 0 -2)">
	<stop offset="0" style="stop-color:#88F96C"/>
	<stop offset="1" style="stop-color:#65E772"/>
</linearGradient>
<path style="fill:none;stroke:url(#SVGID_00000130643102654575798570000009193449885903149481_);stroke-width:2.5;stroke-linecap:round;stroke-linejoin:round;" d="  M266.7,316.5h5.1c1.6,0,3.2-0.7,4.3-1.8l0,0c2.1-2.2,5.6-2.4,8-0.5l3.8,3.1c2,1.6,4.5,2.5,7.1,2.5h5.4c1.1,0,2.3-0.3,3.2-0.9  l0.5-0.3c2.1-1.2,4.8-1,6.6,0.7l0,0c1.9,1.7,4.7,2,6.8,0.5l10.6-7c1.8-1.2,4.2-1,5.9,0.5l0,0c1.9,1.8,4.9,1.7,6.7-0.3l2.6-2.8  c1.2-1.3,2.7-2.2,4.4-2.5l2.1-0.5c4-0.9,7.3-3.6,8.9-7.4l0.4-1c1.2-2.8,3.6-5,6.5-5.8l2.2-0.7c1-0.3,1.8-0.9,2.3-1.7l0,0  c1.6-2.5,5.2-2.6,6.9-0.1l2.5,3.6c1.8,2.6,5,3.7,8,2.7l2.6-0.8c3.1-1,5.6-3.4,6.7-6.5l4.9-13.6c0.9-2.6,3.7-4.1,6.4-3.6l0,0  c2.2,0.4,4.4-0.5,5.7-2.3l3-4.3c1-1.5,3-1.9,4.5-1l1.4,0.8c0.8,0.5,1.9,0.2,2.4-0.6l0,0c0.6-0.9,1.9-1.1,2.7-0.3l2.8,2.8  c2.5,2.5,6.8,1.6,8.1-1.7l3-8c1.5-3.9,5.8-5.9,9.7-4.4l0,0c2.5,0.9,5.3,0.5,7.4-1.2l2.3-1.9c2.2-1.8,5-2.8,7.8-2.8h4.5  c2.6,0,4.8,1.6,5.7,4l0,0c1.5,4.4,7.2,5.5,10.2,1.9l2.3-2.7"/>
<path class="st9" d="M485.3,98.2h19c1.4,0,2.5,1.1,2.5,2.5l0,0c0,1.4-1.1,2.5-2.5,2.5h-19c-1.4,0-2.5-1.1-2.5-2.5l0,0  C482.8,99.3,483.9,98.2,485.3,98.2z"/>
<linearGradient id="SVGID_00000049907509898393096030000009466101730448795297_" gradientUnits="userSpaceOnUse" x1="467.3281" y1="111.1817" x2="506.8281" y2="112.1817" gradientTransform="matrix(1 0 0 1 0 -2)">
	<stop offset="0" style="stop-color:#88F96D"/>
	<stop offset="1" style="stop-color:#66E773"/>
</linearGradient>
<path style="fill:url(#SVGID_00000049907509898393096030000009466101730448795297_);" d="M471.3,107.2h33c1.4,0,2.5,1.1,2.5,2.5l0,0  c0,1.4-1.1,2.5-2.5,2.5h-33c-1.4,0-2.5-1.1-2.5-2.5l0,0C468.8,108.3,469.9,107.2,471.3,107.2z"/>
<g id="_x35_wxr9h.tif">
	<g>
		<g>
			<path class="st12" d="M614.9,292.9c0.7,0,1.5,0,2.2,0c0.1,0,0.2,0.1,0.3,0.1c2.9,0.3,5.6,1.3,7.9,3.1c2.9,2.3,4.7,5.3,5.4,9     c0.2,1,0.2,2,0.3,3c2,0,4.1,0,6.1,0c0.2,2.6,0.5,5.1,0.7,7.6c0.4,4.6,0.8,9.3,1.2,13.9c0.5,5.2,0.9,10.4,1.4,15.6     c0.1,0.9,0.2,1.9,0.3,2.8c0,0.2,0,0.4,0,0.5c-16.5,0-32.9,0-49.4,0c1.2-13.5,2.4-27,3.6-40.5c2.1,0,4.1,0,6.1,0     c0.1-1.2,0.1-2.3,0.4-3.3c1.4-5.9,5.1-9.8,10.9-11.4C613.3,293.2,614.1,293.1,614.9,292.9z M628.1,308.2c-1-5.1-5.7-9.8-12.1-9.7     c-6.7,0-11.1,5-12,9.7C612,308.2,620,308.2,628.1,308.2z M604.2,302.5c3-4,6.9-6.2,11.9-6.2c4.9,0,8.8,2.2,11.9,6.2     c-1.7-4.2-6.3-7.8-12-7.8C610.3,294.8,605.8,298.6,604.2,302.5z"/>
		</g>
	</g>
</g>
<g>
	
		<linearGradient id="SVGID_00000066503635837224657900000016617564485070485128_" gradientUnits="userSpaceOnUse" x1="582.9" y1="248.9" x2="594.8853" y2="248.9" gradientTransform="matrix(1 0 0 -1 0 610)">
		<stop offset="0" style="stop-color:#FC7318"/>
		<stop offset="1" style="stop-color:#FEB423"/>
	</linearGradient>
	
		<polygon style="fill-rule:evenodd;clip-rule:evenodd;fill:url(#SVGID_00000066503635837224657900000016617564485070485128_);" points="   588.9,355.4 590.6,359.4 594.9,359.7 591.6,362.6 592.6,366.8 588.9,364.5 585.2,366.8 586.2,362.6 582.9,359.7 587.2,359.4  "/>
	
		<linearGradient id="SVGID_00000019644884492753650290000012897609257981694860_" gradientUnits="userSpaceOnUse" x1="588.9" y1="248.9" x2="594.8926" y2="248.9" gradientTransform="matrix(1 0 0 -1 0 610)">
		<stop offset="0" style="stop-color:#FC7318"/>
		<stop offset="1" style="stop-color:#FEB423"/>
	</linearGradient>
	
		<polygon style="fill-rule:evenodd;clip-rule:evenodd;fill:url(#SVGID_00000019644884492753650290000012897609257981694860_);" points="   588.9,355.4 590.6,359.4 594.9,359.7 591.6,362.6 592.6,366.8 588.9,364.5  "/>
	
		<linearGradient id="SVGID_00000157307403162453976880000008720582168267016605_" gradientUnits="userSpaceOnUse" x1="596.4781" y1="248.9" x2="608.4633" y2="248.9" gradientTransform="matrix(1 0 0 -1 0 610)">
		<stop offset="0" style="stop-color:#FC7318"/>
		<stop offset="1" style="stop-color:#FEB423"/>
	</linearGradient>
	
		<polygon style="fill-rule:evenodd;clip-rule:evenodd;fill:url(#SVGID_00000157307403162453976880000008720582168267016605_);" points="   602.5,355.4 604.1,359.4 608.5,359.7 605.2,362.6 606.2,366.8 602.5,364.5 598.8,366.8 599.8,362.6 596.5,359.7 600.8,359.4  "/>
	
		<linearGradient id="SVGID_00000170965966326374275030000014314465374196866233_" gradientUnits="userSpaceOnUse" x1="602.4707" y1="248.9" x2="608.4633" y2="248.9" gradientTransform="matrix(1 0 0 -1 0 610)">
		<stop offset="0" style="stop-color:#FC7318"/>
		<stop offset="1" style="stop-color:#FEB423"/>
	</linearGradient>
	
		<polygon style="fill-rule:evenodd;clip-rule:evenodd;fill:url(#SVGID_00000170965966326374275030000014314465374196866233_);" points="   602.5,355.4 604.1,359.4 608.5,359.7 605.2,362.6 606.2,366.8 602.5,364.5  "/>
	
		<linearGradient id="SVGID_00000160179645054177660350000013944305850561865089_" gradientUnits="userSpaceOnUse" x1="610.0472" y1="248.9" x2="622.0324" y2="248.9" gradientTransform="matrix(1 0 0 -1 0 610)">
		<stop offset="0" style="stop-color:#FC7318"/>
		<stop offset="1" style="stop-color:#FEB423"/>
	</linearGradient>
	
		<polygon style="fill-rule:evenodd;clip-rule:evenodd;fill:url(#SVGID_00000160179645054177660350000013944305850561865089_);" points="   616,355.4 617.7,359.4 622,359.7 618.7,362.6 619.7,366.8 616,364.5 612.3,366.8 613.4,362.6 610,359.7 614.4,359.4  "/>
	
		<linearGradient id="SVGID_00000179631270827861436340000010003257979742340025_" gradientUnits="userSpaceOnUse" x1="616.0398" y1="248.9" x2="622.0324" y2="248.9" gradientTransform="matrix(1 0 0 -1 0 610)">
		<stop offset="0" style="stop-color:#FC7318"/>
		<stop offset="1" style="stop-color:#FEB423"/>
	</linearGradient>
	
		<polygon style="fill-rule:evenodd;clip-rule:evenodd;fill:url(#SVGID_00000179631270827861436340000010003257979742340025_);" points="   616,355.4 617.7,359.4 622,359.7 618.7,362.6 619.7,366.8 616,364.5  "/>
	
		<linearGradient id="SVGID_00000126304241668675531380000005790476517156129169_" gradientUnits="userSpaceOnUse" x1="623.6163" y1="248.9" x2="635.6015" y2="248.9" gradientTransform="matrix(1 0 0 -1 0 610)">
		<stop offset="0" style="stop-color:#FC7318"/>
		<stop offset="1" style="stop-color:#FEB423"/>
	</linearGradient>
	
		<polygon style="fill-rule:evenodd;clip-rule:evenodd;fill:url(#SVGID_00000126304241668675531380000005790476517156129169_);" points="   629.6,355.4 631.3,359.4 635.6,359.7 632.3,362.6 633.3,366.8 629.6,364.5 625.9,366.8 626.9,362.6 623.6,359.7 628,359.4  "/>
	
		<linearGradient id="SVGID_00000183224784862978033380000002017926554628881077_" gradientUnits="userSpaceOnUse" x1="629.6089" y1="248.9" x2="635.6015" y2="248.9" gradientTransform="matrix(1 0 0 -1 0 610)">
		<stop offset="0" style="stop-color:#FC7318"/>
		<stop offset="1" style="stop-color:#FEB423"/>
	</linearGradient>
	
		<polygon style="fill-rule:evenodd;clip-rule:evenodd;fill:url(#SVGID_00000183224784862978033380000002017926554628881077_);" points="   629.6,355.4 631.3,359.4 635.6,359.7 632.3,362.6 633.3,366.8 629.6,364.5  "/>
	
		<linearGradient id="SVGID_00000112632226109220795980000002329638874211613357_" gradientUnits="userSpaceOnUse" x1="637.1855" y1="248.9" x2="649.1707" y2="248.9" gradientTransform="matrix(1 0 0 -1 0 610)">
		<stop offset="0" style="stop-color:#FC7318"/>
		<stop offset="1" style="stop-color:#FEB423"/>
	</linearGradient>
	
		<polygon style="fill-rule:evenodd;clip-rule:evenodd;fill:url(#SVGID_00000112632226109220795980000002329638874211613357_);" points="   643.2,355.4 644.8,359.4 649.2,359.7 645.9,362.6 646.9,366.8 643.2,364.5 639.5,366.8 640.5,362.6 637.2,359.7 641.5,359.4  "/>
	
		<linearGradient id="SVGID_00000060715466963432961470000017913806597001712311_" gradientUnits="userSpaceOnUse" x1="643.178" y1="248.9" x2="649.1707" y2="248.9" gradientTransform="matrix(1 0 0 -1 0 610)">
		<stop offset="0" style="stop-color:#FC7318"/>
		<stop offset="1" style="stop-color:#FEB423"/>
	</linearGradient>
	
		<polygon style="fill-rule:evenodd;clip-rule:evenodd;fill:url(#SVGID_00000060715466963432961470000017913806597001712311_);" points="   643.2,355.4 644.8,359.4 649.2,359.7 645.9,362.6 646.9,366.8 643.2,364.5  "/>
</g>
<path class="st0" d="M708.2,272.8h137.9c1.7,0,3.1,1.7,3.1,3.7v100c0,2.1-1.4,3.7-3.1,3.7H708.2c-1.7,0-3.1-1.7-3.1-3.7v-100  C705.1,274.5,706.5,272.8,708.2,272.8z"/>
<g id="_x35_wxr9h.tif_00000170281101740765581000000007360618921189828792_">
	<g>
		<g>
			<path class="st12" d="M776.1,292.9c0.7,0,1.5,0,2.2,0c0.1,0,0.2,0.1,0.3,0.1c2.9,0.3,5.6,1.3,7.9,3.1c2.9,2.3,4.7,5.3,5.4,9     c0.2,1,0.2,2,0.3,3c2,0,4.1,0,6.1,0c0.2,2.6,0.5,5.1,0.7,7.6c0.4,4.6,0.8,9.3,1.2,13.9c0.5,5.2,0.9,10.4,1.4,15.6     c0.1,0.9,0.2,1.9,0.3,2.8c0,0.2,0,0.4,0,0.5c-16.5,0-32.9,0-49.4,0c1.2-13.5,2.4-27,3.6-40.5c2.1,0,4.1,0,6.1,0     c0.1-1.2,0.1-2.3,0.4-3.3c1.4-5.9,5.1-9.8,10.9-11.4C774.4,293.2,775.2,293.1,776.1,292.9z M789.2,308.2c-1-5.1-5.7-9.8-12.1-9.7     c-6.7,0-11.1,5-12,9.7C773.1,308.2,781.2,308.2,789.2,308.2z M765.3,302.5c3-4,6.9-6.2,11.9-6.2c4.9,0,8.8,2.2,11.9,6.2     c-1.7-4.2-6.3-7.8-12-7.8C771.4,294.8,766.9,298.6,765.3,302.5z"/>
		</g>
	</g>
</g>
<g>
	
		<linearGradient id="SVGID_00000057149209871064302770000013549745478094325636_" gradientUnits="userSpaceOnUse" x1="744.0375" y1="248.9" x2="756.0227" y2="248.9" gradientTransform="matrix(1 0 0 -1 0 610)">
		<stop offset="0" style="stop-color:#FC7318"/>
		<stop offset="1" style="stop-color:#FEB423"/>
	</linearGradient>
	
		<polygon style="fill-rule:evenodd;clip-rule:evenodd;fill:url(#SVGID_00000057149209871064302770000013549745478094325636_);" points="   750,355.4 751.7,359.4 756,359.7 752.7,362.6 753.7,366.8 750,364.5 746.3,366.8 747.3,362.6 744,359.7 748.4,359.4  "/>
	
		<linearGradient id="SVGID_00000006701199501397191380000010886753974511117968_" gradientUnits="userSpaceOnUse" x1="750.0302" y1="248.9" x2="756.0227" y2="248.9" gradientTransform="matrix(1 0 0 -1 0 610)">
		<stop offset="0" style="stop-color:#FC7318"/>
		<stop offset="1" style="stop-color:#FEB423"/>
	</linearGradient>
	
		<polygon style="fill-rule:evenodd;clip-rule:evenodd;fill:url(#SVGID_00000006701199501397191380000010886753974511117968_);" points="   750,355.4 751.7,359.4 756,359.7 752.7,362.6 753.7,366.8 750,364.5  "/>
	
		<linearGradient id="SVGID_00000098904917248126488760000017213409747856695734_" gradientUnits="userSpaceOnUse" x1="757.6" y1="248.9" x2="769.5852" y2="248.9" gradientTransform="matrix(1 0 0 -1 0 610)">
		<stop offset="0" style="stop-color:#FC7318"/>
		<stop offset="1" style="stop-color:#FEB423"/>
	</linearGradient>
	
		<polygon style="fill-rule:evenodd;clip-rule:evenodd;fill:url(#SVGID_00000098904917248126488760000017213409747856695734_);" points="   763.6,355.4 765.3,359.4 769.6,359.7 766.3,362.6 767.3,366.8 763.6,364.5 759.9,366.8 760.9,362.6 757.6,359.7 761.9,359.4  "/>
	
		<linearGradient id="SVGID_00000116956160762013708300000017361649040748774310_" gradientUnits="userSpaceOnUse" x1="763.6" y1="248.9" x2="769.5927" y2="248.9" gradientTransform="matrix(1 0 0 -1 0 610)">
		<stop offset="0" style="stop-color:#FC7318"/>
		<stop offset="1" style="stop-color:#FEB423"/>
	</linearGradient>
	
		<polygon style="fill-rule:evenodd;clip-rule:evenodd;fill:url(#SVGID_00000116956160762013708300000017361649040748774310_);" points="   763.6,355.4 765.3,359.4 769.6,359.7 766.3,362.6 767.3,366.8 763.6,364.5  "/>
	
		<linearGradient id="SVGID_00000065789852159853658500000018192841380246380470_" gradientUnits="userSpaceOnUse" x1="771.1758" y1="248.9" x2="783.1609" y2="248.9" gradientTransform="matrix(1 0 0 -1 0 610)">
		<stop offset="0" style="stop-color:#FC7318"/>
		<stop offset="1" style="stop-color:#FEB423"/>
	</linearGradient>
	
		<polygon style="fill-rule:evenodd;clip-rule:evenodd;fill:url(#SVGID_00000065789852159853658500000018192841380246380470_);" points="   777.2,355.4 778.8,359.4 783.2,359.7 779.9,362.6 780.9,366.8 777.2,364.5 773.5,366.8 774.5,362.6 771.2,359.7 775.5,359.4  "/>
	
		<linearGradient id="SVGID_00000009550510117674298360000003193303289500677038_" gradientUnits="userSpaceOnUse" x1="777.1684" y1="248.9" x2="783.1609" y2="248.9" gradientTransform="matrix(1 0 0 -1 0 610)">
		<stop offset="0" style="stop-color:#FC7318"/>
		<stop offset="1" style="stop-color:#FEB423"/>
	</linearGradient>
	
		<polygon style="fill-rule:evenodd;clip-rule:evenodd;fill:url(#SVGID_00000009550510117674298360000003193303289500677038_);" points="   777.2,355.4 778.8,359.4 783.2,359.7 779.9,362.6 780.9,366.8 777.2,364.5  "/>
	
		<linearGradient id="SVGID_00000079457036805067139720000001431307598526727612_" gradientUnits="userSpaceOnUse" x1="784.7449" y1="248.9" x2="796.7301" y2="248.9" gradientTransform="matrix(1 0 0 -1 0 610)">
		<stop offset="0" style="stop-color:#FC7318"/>
		<stop offset="1" style="stop-color:#FEB423"/>
	</linearGradient>
	
		<polygon style="fill-rule:evenodd;clip-rule:evenodd;fill:url(#SVGID_00000079457036805067139720000001431307598526727612_);" points="   790.7,355.4 792.4,359.4 796.7,359.7 793.4,362.6 794.4,366.8 790.7,364.5 787,366.8 788.1,362.6 784.7,359.7 789.1,359.4  "/>
	
		<linearGradient id="SVGID_00000054986014604407779750000014022311011061124527_" gradientUnits="userSpaceOnUse" x1="790.7375" y1="248.9" x2="796.7301" y2="248.9" gradientTransform="matrix(1 0 0 -1 0 610)">
		<stop offset="0" style="stop-color:#FC7318"/>
		<stop offset="1" style="stop-color:#FEB423"/>
	</linearGradient>
	
		<polygon style="fill-rule:evenodd;clip-rule:evenodd;fill:url(#SVGID_00000054986014604407779750000014022311011061124527_);" points="   790.7,355.4 792.4,359.4 796.7,359.7 793.4,362.6 794.4,366.8 790.7,364.5  "/>
	
		<linearGradient id="SVGID_00000123421434239204318500000017941746672170442934_" gradientUnits="userSpaceOnUse" x1="798.314" y1="248.9" x2="810.2992" y2="248.9" gradientTransform="matrix(1 0 0 -1 0 610)">
		<stop offset="0" style="stop-color:#FC7318"/>
		<stop offset="1" style="stop-color:#FEB423"/>
	</linearGradient>
	
		<polygon style="fill-rule:evenodd;clip-rule:evenodd;fill:url(#SVGID_00000123421434239204318500000017941746672170442934_);" points="   804.3,355.4 806,359.4 810.3,359.7 807,362.6 808,366.8 804.3,364.5 800.6,366.8 801.6,362.6 798.3,359.7 802.6,359.4  "/>
	
		<linearGradient id="SVGID_00000050641028107694543320000006880747148573931698_" gradientUnits="userSpaceOnUse" x1="804.3066" y1="248.9" x2="810.2992" y2="248.9" gradientTransform="matrix(1 0 0 -1 0 610)">
		<stop offset="0" style="stop-color:#FC7318"/>
		<stop offset="1" style="stop-color:#FEB423"/>
	</linearGradient>
	
		<polygon style="fill-rule:evenodd;clip-rule:evenodd;fill:url(#SVGID_00000050641028107694543320000006880747148573931698_);" points="   804.3,355.4 806,359.4 810.3,359.7 807,362.6 808,366.8 804.3,364.5  "/>
</g>
<linearGradient id="SVGID_00000149373570040511671400000018355359822597439619_" gradientUnits="userSpaceOnUse" x1="569.8253" y1="434.0582" x2="619.2282" y2="461.1224" gradientTransform="matrix(1 0 0 -1 0 610)">
	<stop offset="0" style="stop-color:#FC7318"/>
	<stop offset="1" style="stop-color:#FEB423"/>
</linearGradient>
<path style="fill:url(#SVGID_00000149373570040511671400000018355359822597439619_);" d="M599.9,180.1h-17.1c-4.1,0-7.4-3.3-7.4-7.4  v-17.1c0-4.1,3.3-7.4,7.4-7.4h17.1c4.1,0,7.4,3.3,7.4,7.4v17.1C607.3,176.8,604,180.1,599.9,180.1z"/>
<path class="st43" d="M236.8,439.6h52c2.8,0,5,2.2,5,5l0,0c0,2.8-2.2,5-5,5h-52c-2.8,0-5-2.2-5-5l0,0  C231.8,441.8,234.1,439.6,236.8,439.6z"/>
<path class="st10" d="M236.8,482.6h114c2.8,0,5,2.2,5,5l0,0c0,2.8-2.2,5-5,5h-114c-2.8,0-5-2.2-5-5l0,0  C231.8,484.8,234.1,482.6,236.8,482.6z"/>
<path class="st10" d="M236.8,521.6h67c2.8,0,5,2.2,5,5l0,0c0,2.8-2.2,5-5,5h-67c-2.8,0-5-2.2-5-5l0,0  C231.8,523.8,234.1,521.6,236.8,521.6z"/>
<path class="st10" d="M236.8,559.6h102c2.8,0,5,2.2,5,5l0,0c0,2.8-2.2,5-5,5h-102c-2.8,0-5-2.2-5-5l0,0  C231.8,561.8,234.1,559.6,236.8,559.6z"/>
<path class="st10" d="M797,483.1h114c2.8,0,5,2.2,5,5l0,0c0,2.8-2.2,5-5,5H797c-2.8,0-5-2.2-5-5l0,0  C792,485.3,794.3,483.1,797,483.1z"/>
<path class="st10" d="M797,522.1h67c2.8,0,5,2.2,5,5l0,0c0,2.8-2.2,5-5,5h-67c-2.8,0-5-2.2-5-5l0,0C792,524.3,794.3,522.1,797,522.1  z"/>
<path class="st10" d="M797,560.1h102c2.8,0,5,2.2,5,5l0,0c0,2.8-2.2,5-5,5H797c-2.8,0-5-2.2-5-5l0,0  C792,562.3,794.3,560.1,797,560.1z"/>
<path class="st10" d="M408.8,482.6h64c2.8,0,5,2.2,5,5l0,0c0,2.8-2.2,5-5,5h-64c-2.8,0-5-2.2-5-5l0,0  C403.8,484.8,406.1,482.6,408.8,482.6z"/>
<path class="st10" d="M408.8,521.6h26c2.8,0,5,2.2,5,5l0,0c0,2.8-2.2,5-5,5h-26c-2.8,0-5-2.2-5-5l0,0  C403.8,523.8,406.1,521.6,408.8,521.6z"/>
<path class="st10" d="M408.8,559.6h51c2.8,0,5,2.2,5,5l0,0c0,2.8-2.2,5-5,5h-51c-2.8,0-5-2.2-5-5l0,0  C403.8,561.8,406.1,559.6,408.8,559.6z"/>
<path class="st10" d="M667.5,482.6h64c2.8,0,5,2.2,5,5l0,0c0,2.8-2.2,5-5,5h-64c-2.8,0-5-2.2-5-5l0,0  C662.5,484.8,664.8,482.6,667.5,482.6z"/>
<path class="st10" d="M667.5,521.6h26c2.8,0,5,2.2,5,5l0,0c0,2.8-2.2,5-5,5h-26c-2.8,0-5-2.2-5-5l0,0  C662.5,523.8,664.8,521.6,667.5,521.6z"/>
<path class="st10" d="M667.5,559.6h51c2.8,0,5,2.2,5,5l0,0c0,2.8-2.2,5-5,5h-51c-2.8,0-5-2.2-5-5l0,0  C662.5,561.8,664.8,559.6,667.5,559.6z"/>
<path class="st10" d="M522.8,482.6h72c2.8,0,5,2.2,5,5l0,0c0,2.8-2.2,5-5,5h-72c-2.8,0-5-2.2-5-5l0,0  C517.8,484.8,520.1,482.6,522.8,482.6z"/>
<path class="st10" d="M522.8,521.6h101c2.8,0,5,2.2,5,5l0,0c0,2.8-2.2,5-5,5h-101c-2.8,0-5-2.2-5-5l0,0  C517.8,523.8,520.1,521.6,522.8,521.6z"/>
<path class="st10" d="M522.8,559.6h51c2.8,0,5,2.2,5,5l0,0c0,2.8-2.2,5-5,5h-51c-2.8,0-5-2.2-5-5l0,0  C517.8,561.8,520.1,559.6,522.8,559.6z"/>
<path class="st43" d="M408.8,439.6h36c2.8,0,5,2.2,5,5l0,0c0,2.8-2.2,5-5,5h-36c-2.8,0-5-2.2-5-5l0,0  C403.8,441.8,406.1,439.6,408.8,439.6z"/>
<path class="st10" d="M891.5,142.2h64c2.8,0,5,2.2,5,5l0,0c0,2.8-2.2,5-5,5h-64c-2.8,0-5-2.2-5-5l0,0  C886.5,144.4,888.8,142.2,891.5,142.2z"/>
<path class="st10" d="M891.5,181.1h26c2.8,0,5,2.2,5,5l0,0c0,2.8-2.2,5-5,5h-26c-2.8,0-5-2.2-5-5l0,0  C886.5,183.4,888.8,181.1,891.5,181.1z"/>
<path class="st10" d="M891.5,219.1h51c2.8,0,5,2.2,5,5l0,0c0,2.8-2.2,5-5,5h-51c-2.8,0-5-2.2-5-5l0,0  C886.5,221.4,888.8,219.1,891.5,219.1z"/>
<path class="st43" d="M891.5,99.2h36c2.8,0,5,2.2,5,5l0,0c0,2.8-2.2,5-5,5h-36c-2.8,0-5-2.2-5-5l0,0  C886.5,101.4,888.8,99.2,891.5,99.2z"/>
<path class="st43" d="M522.8,439.6h51c2.8,0,5,2.2,5,5l0,0c0,2.8-2.2,5-5,5h-51c-2.8,0-5-2.2-5-5l0,0  C517.8,441.8,520.1,439.6,522.8,439.6z"/>
<path class="st43" d="M832.5,449.6h-36c-2.8,0-5-2.2-5-5l0,0c0-2.8,2.2-5,5-5h36c2.8,0,5,2.2,5,5l0,0  C837.5,447.4,835.3,449.6,832.5,449.6z"/>
<path class="st43" d="M718.5,449.6h-51c-2.8,0-5-2.2-5-5l0,0c0-2.8,2.2-5,5-5h51c2.8,0,5,2.2,5,5l0,0  C723.5,447.4,721.3,449.6,718.5,449.6z"/>
<line class="st44" x1="231.8" y1="467.1" x2="1016.7" y2="467.1"/>
<line class="st44" x1="231.8" y1="507.1" x2="1016.7" y2="507.1"/>
<line class="st44" x1="231.8" y1="546.1" x2="1016.7" y2="546.1"/>
<linearGradient id="SVGID_00000064348633242274662050000001872629672934188682_" gradientUnits="userSpaceOnUse" x1="942.9995" y1="312.1327" x2="942.6321" y2="357.6983" gradientTransform="matrix(1 0 0 1 0 -2)">
	<stop offset="0" style="stop-color:#83DB73;stop-opacity:0.21"/>
	<stop offset="1" style="stop-color:#83DB73;stop-opacity:0"/>
</linearGradient>
<path style="fill:url(#SVGID_00000064348633242274662050000001872629672934188682_);" d="M907.2,337.1c-3.5,0-12.3,18.2-14.6,20  h92.6c4.1,0,7.3-3.2,7.3-7.3v-39.5c-4.4-1.5-10.3,13.2-17.6,13.2s-7.3-4.6-13.8-4.6s-7.6,8.1-13.1,9c-5.4,0.9-11.3-0.9-15.7,0  s-11,10.1-15.4,10.1S911.6,337.1,907.2,337.1z"/>
<linearGradient id="SVGID_00000021091119809601458090000007110393257311984001_" gradientUnits="userSpaceOnUse" x1="989.5776" y1="305.7788" x2="896.8857" y2="356.981" gradientTransform="matrix(1 0 0 1 0 -2)">
	<stop offset="0" style="stop-color:#88F96C"/>
	<stop offset="1" style="stop-color:#65E772"/>
</linearGradient>
<path style="fill:none;stroke:url(#SVGID_00000021091119809601458090000007110393257311984001_);stroke-width:2.5;stroke-linecap:round;stroke-linejoin:round;" d="  M894,354.9c2.2-1.8,6.6-16.2,13.1-17.9c4.3-1.2,7.5,1.8,11.9,1.8s9.6-10,14-11c4.4-1,9.6,0.9,15,0c5.4-0.9,6.8-9,13.1-9  c6.5,0,6.5,4.6,13.8,4.6c7.3,0,12.5-11,16.2-13.2"/>
<path class="st17" d="M895.6,279.4h11.6c1.6,0,2.9,1.3,2.9,2.9v3.5c0,1.6-1.3,2.9-2.9,2.9h-11.6c-1.6,0-2.9-1.3-2.9-2.9v-3.5  C892.7,280.7,894,279.4,895.6,279.4z"/>
<path class="st18" d="M919.4,279.4H931c1.6,0,2.9,1.3,2.9,2.9v3.5c0,1.6-1.3,2.9-2.9,2.9h-11.6c-1.6,0-2.9-1.3-2.9-2.9v-3.5  C916.5,280.7,917.8,279.4,919.4,279.4z"/>
</svg>